<!-- <svg id="Layer_1" data-name="Layer 1" xmlns="http://www.w3.org/2000/svg" viewBox="0 0 2560 1591.4">
    <defs></defs>
    <path style="fill:#323a40;" class="cls-1" d="M1286.63,77c68.68-19.09-52.05-56.68,1288,510.23,6.16,2.61,13.35,4.87,16.86,11.14,3.8,12.32.84,30.83-14.21,33.84q-224.36,53.6-448.82,106.67c106.68,86,189.64,83,201.62,153.74,13.55,75.21-59.53,148.3-125.65,187.73,2.36,174.63-177.72,268-70.07,490.66,19.33,32.69-22.15,51.88-35.77,31.34-38.61-63.42-47.35-121.76-50.68-129.33-6.84,59.28-9.41,78.33-3.73,146.11-.57,21.69-36.12,27.63-44.5,8-3.94-19.41-5.13-39.28-6.93-59-6.5,74.52,7.37,71-35.83,86.19-52.09,18.37-139.13-14.3-131-48.27,92.81-309.39,209.36-372.84,272.67-504.78,52.93-106.38,69.76-67.84,126.91-127.69,34.34-35.82,33.53-69.89,22.85-84.65-4.88-4-130.3-53.29-198.69-131.15-4.61.86-9.15,1.87-13.67,2.87a1073.84,1073.84,0,0,1,64.79,231c4,19.16-13.71,35.1-34.19,26.08-451.43-196.69-582.3,17.68-927.8-64.87-117.25-27.87-303.38-130.26-636.61-20.31-21.54,5.91-31.89-14.87-28.55-30.11a725,725,0,0,1,97.59-264.29Q307.62,524.69,44.06,411c-18.45-8-12.2-39.43,6.82-42.48Q668.75,222.73,1286.63,77M963.54,176.86Q509.73,284.22,55.83,391.2,319.61,505.05,583.47,618.64c69.09-105.75,204.1-227.19,272.21-233.74,18.88-2.59,38-2,57-3.62,429.51-30.55,930.56,72.37,971.31,117.64,10.47,11.56,91.32,120.19,143,240.3,181.22-42.74,362.3-86.08,543.5-128.89Q1954.2,349.63,1338,88.85c-124.9,28.82-249.58,58.82-374.41,88M839.91,410.74C815,419.3,547.43,572,495.38,910.57c347.16-116.39,558.47,2.44,673.83,26,323.53,68,466.65-136.46,909.54,61.76C2040.69,754.18,1909,558.58,1858,507.74a2652.49,2652.49,0,0,0-1018.11-97M2075,751.57c132.4,129.63,253.74,97.59,196.84,198-29,48.52-54.72,67.35-81.57,84.85,5.25,5.79,8.34,13.12,10.53,20.55,42.31-25.39,80.77-61.21,99.42-107.77,33.1-87.19-40.12-101-95.91-130.05a445.58,445.58,0,0,1-102.53-71.73c-9,2-17.78,4.38-26.78,6.14m23.63,404.54c-6.54,14.14-165.08,168.59-250.35,455.13,31.35,27.78,76.14,36,119.31,14.79-2.37-113,31.07-226,92.22-320.86-41.63,98-56.21,207.8-38.56,313-11-95.86,4.39-194.9,45.84-282.16-14.18,92.45,5.81,175.68,49.69,253.17-22.22-70.37-100.92-135.94,53-416.34,3.18-17,15.81-100.08,1.82-126.15C2148.44,1040,2109.65,1131.07,2098.63,1156.11Z" transform="translate(-33 -68.3)" />
    <path class="cls-2" d="M1338,88.86q616.47,260.2,1232.57,521.47c-181.2,42.81-362.28,86.15-543.5,128.89a1019,1019,0,0,0-102.9-183.67c-29.55-42.06-35.81-62.34-67.92-74.66-12.37-4.84-440.57-135.39-943.52-99.61-69.92,5.82-70.51-5-143.43,44.33-72.13,53.29-136.61,117.77-185.78,193Q319.65,505,55.83,391.2C246.42,345.91,1257.17,107.49,1338,88.86Z" transform="translate(-33 -68.3)" />
    <path class="cls-2" d="M1858,507.74c11.51,11.49,175.39,199.73,220.74,490.62-442-197.81-586.8,6.08-909.55-61.76C1054,913,842.39,794.22,495.38,910.57,527.22,703.45,647.2,525.14,825.9,418.41,860.47,399.08,1339.53,353.32,1858,507.74Z" transform="translate(-33 -68.3)" />
    <path class="cls-2" d="M2075,751.57c9-1.76,17.83-4.19,26.78-6.14,120.57,113.36,241.7,87.83,198.44,201.78-18.65,46.56-57.11,82.38-99.42,107.77-2.19-7.43-5.28-14.76-10.53-20.54,26.63-17.36,52.48-36.11,81.57-84.86,48.14-85-32.17-76.59-135.65-147.31C2114,787.62,2094,770.12,2075,751.57Z" transform="translate(-33 -68.3)" />
    <path class="cls-2" d="M2171.59,1046.65c13.86,25.83,1.47,108.62-1.82,126.15-150.81,274.75-78.43,335.77-53,416.34-43.79-77.34-63.9-160.56-49.69-253.17-41.45,87.26-56.83,186.3-45.84,282.16-17.65-105.16-3.07-214.92,38.56-313C1998.66,1400,1965.22,1513,1967.59,1626c-43.08,21.14-87.89,13-119.31-14.79,85.76-288.2,242.9-439,250.34-455.13C2111,1127.94,2149,1040.16,2171.59,1046.65Z" transform="translate(-33 -68.3)" />
</svg> -->
<svg id="Layer_1" data-name="Layer 1" xmlns="http://www.w3.org/2000/svg" viewBox="0 0 2560 1591.4">
    <!-- <defs>
        <style>.cls-1{fill:#ffdf00;}.cls-2{fill:#323a40;}</style>
    </defs> -->
    <path style="fill:#ffdf00" class="cls-1" d="M1286.63,77c68.68-19.09-52.05-56.68,1288,510.23,6.16,2.61,13.35,4.87,16.86,11.14,3.8,12.32.84,30.83-14.21,33.84q-224.36,53.6-448.82,106.67c106.68,86,189.64,83,201.62,153.74,13.55,75.21-59.53,148.3-125.65,187.73,2.36,174.63-177.72,268-70.07,490.66,19.33,32.69-22.15,51.88-35.77,31.34-38.61-63.42-47.35-121.76-50.68-129.33-6.84,59.28-9.41,78.33-3.73,146.11-.57,21.69-36.12,27.63-44.5,8-3.94-19.41-5.13-39.28-6.93-59-6.5,74.52,7.37,71-35.83,86.19-52.09,18.37-139.13-14.3-131-48.27,92.81-309.39,209.36-372.84,272.67-504.78,52.93-106.38,69.76-67.84,126.91-127.69,34.34-35.82,33.53-69.89,22.85-84.65-4.88-4-130.3-53.29-198.69-131.15-4.61.86-9.15,1.87-13.67,2.87a1073.84,1073.84,0,0,1,64.79,231c4,19.16-13.71,35.1-34.19,26.08-451.43-196.69-582.3,17.68-927.8-64.87-117.25-27.87-303.38-130.26-636.61-20.31-21.54,5.91-31.89-14.87-28.55-30.11a725,725,0,0,1,97.59-264.29Q307.62,524.69,44.06,411c-18.45-8-12.2-39.43,6.82-42.48Q668.75,222.73,1286.63,77M963.54,176.86Q509.73,284.22,55.83,391.2,319.61,505.05,583.47,618.64c69.09-105.75,204.1-227.19,272.21-233.74,18.88-2.59,38-2,57-3.62,429.51-30.55,930.56,72.37,971.31,117.64,10.47,11.56,91.32,120.19,143,240.3,181.22-42.74,362.3-86.08,543.5-128.89Q1954.2,349.63,1338,88.85c-124.9,28.82-249.58,58.82-374.41,88M839.91,410.74C815,419.3,547.43,572,495.38,910.57c347.16-116.39,558.47,2.44,673.83,26,323.53,68,466.65-136.46,909.54,61.76C2040.69,754.18,1909,558.58,1858,507.74a2652.49,2652.49,0,0,0-1018.11-97M2075,751.57c132.4,129.63,253.74,97.59,196.84,198-29,48.52-54.72,67.35-81.57,84.85,5.25,5.79,8.34,13.12,10.53,20.55,42.31-25.39,80.77-61.21,99.42-107.77,33.1-87.19-40.12-101-95.91-130.05a445.58,445.58,0,0,1-102.53-71.73c-9,2-17.78,4.38-26.78,6.14m23.63,404.54c-6.54,14.14-165.08,168.59-250.35,455.13,31.35,27.78,76.14,36,119.31,14.79-2.37-113,31.07-226,92.22-320.86-41.63,98-56.21,207.8-38.56,313-11-95.86,4.39-194.9,45.84-282.16-14.18,92.45,5.81,175.68,49.69,253.17-22.22-70.37-100.92-135.94,53-416.34,3.18-17,15.81-100.08,1.82-126.15C2148.44,1040,2109.65,1131.07,2098.63,1156.11Z" transform="translate(-33 -68.3)" />
    <path style="fill:#323a40" class="cls-2" d="M1338,88.86q616.47,260.2,1232.57,521.47c-181.2,42.81-362.28,86.15-543.5,128.89a1019,1019,0,0,0-102.9-183.67c-29.55-42.06-35.81-62.34-67.92-74.66-12.37-4.84-440.57-135.39-943.52-99.61-69.92,5.82-70.51-5-143.43,44.33-72.13,53.29-136.61,117.77-185.78,193Q319.65,505,55.83,391.2C246.42,345.91,1257.17,107.49,1338,88.86Z" transform="translate(-33 -68.3)" />
    <path style="fill:#323a40" class="cls-2" d="M1858,507.74c11.51,11.49,175.39,199.73,220.74,490.62-442-197.81-586.8,6.08-909.55-61.76C1054,913,842.39,794.22,495.38,910.57,527.22,703.45,647.2,525.14,825.9,418.41,860.47,399.08,1339.53,353.32,1858,507.74Z" transform="translate(-33 -68.3)" />
    <path style="fill:#323a40" class="cls-2" d="M2075,751.57c9-1.76,17.83-4.19,26.78-6.14,120.57,113.36,241.7,87.83,198.44,201.78-18.65,46.56-57.11,82.38-99.42,107.77-2.19-7.43-5.28-14.76-10.53-20.54,26.63-17.36,52.48-36.11,81.57-84.86,48.14-85-32.17-76.59-135.65-147.31C2114,787.62,2094,770.12,2075,751.57Z" transform="translate(-33 -68.3)" />
    <path style="fill:#323a40" class="cls-2" d="M2171.59,1046.65c13.86,25.83,1.47,108.62-1.82,126.15-150.81,274.75-78.43,335.77-53,416.34-43.79-77.34-63.9-160.56-49.69-253.17-41.45,87.26-56.83,186.3-45.84,282.16-17.65-105.16-3.07-214.92,38.56-313C1998.66,1400,1965.22,1513,1967.59,1626c-43.08,21.14-87.89,13-119.31-14.79,85.76-288.2,242.9-439,250.34-455.13C2111,1127.94,2149,1040.16,2171.59,1046.65Z" transform="translate(-33 -68.3)" />
</svg>