<svg id="Layer_1" data-name="Layer 1" xmlns="http://www.w3.org/2000/svg" viewBox="0 0 224 400"><defs><style>.cls-1{fill:#323a40;}.cls-2{fill:#aaa;}.cls-3{fill:#fff;}</style></defs><path class="cls-1" d="M356.08,455.92h-200a12,12,0,0,1-12-12v-376a12,12,0,0,1,12-12h200a12,12,0,0,1,12,12v376A12,12,0,0,1,356.08,455.92Z" transform="translate(-144.08 -55.92)"/><rect class="cls-1" x="12" y="32" width="200" height="320"/><path class="cls-2" d="M279.84,75.92h-48a4,4,0,0,1-4-4h0a4,4,0,0,1,4-4h48a4,4,0,0,1,4,4h0A4,4,0,0,1,279.84,75.92Z" transform="translate(-144.08 -55.92)"/><path class="cls-2" d="M280.08,431.92h-48a4,4,0,0,1-4-4h0a4,4,0,0,1,4-4h48a4,4,0,0,1,4,4h0A4,4,0,0,1,280.08,431.92Z" transform="translate(-144.08 -55.92)"/><rect class="cls-2" x="31.92" y="120.08" width="168" height="40"/><rect class="cls-2" x="31.92" y="40.08" width="168" height="40"/><rect class="cls-3" x="31.92" y="40.08" width="40" height="40"/><rect class="cls-3" x="159.92" y="120.08" width="40" height="40"/><rect class="cls-3" x="151.92" y="88.08" width="48" height="8"/><rect class="cls-3" x="31.92" y="168.08" width="48" height="8"/><rect class="cls-2" x="31.92" y="200.08" width="168" height="40"/><rect class="cls-3" x="151.92" y="248.08" width="48" height="8"/><rect class="cls-2" x="31.92" y="280.08" width="168" height="40"/><rect class="cls-3" x="31.92" y="328.08" width="48" height="8"/><rect class="cls-3" x="31.92" y="200.08" width="40" height="40"/><rect class="cls-3" x="159.92" y="280.08" width="40" height="40"/></svg>