<svg id="Capa_1" data-name="Capa 1" xmlns="http://www.w3.org/2000/svg" viewBox="0 0 35.47 34.32"><defs><style>.cls-1{fill:#323a40;}</style></defs><path class="cls-1" d="M35.47,18.38a16.51,16.51,0,0,1-33,.08H0L3.67,13l3.67,5.5H5.2A13.76,13.76,0,1,0,19,4.62a1.38,1.38,0,1,1,0-2.75A16.53,16.53,0,0,1,35.47,18.38ZM19,28.63A10.26,10.26,0,0,1,8.71,18.38a.46.46,0,1,0-.91,0A11.16,11.16,0,1,0,19,7.22a.47.47,0,0,0-.46.46.46.46,0,0,0,.46.46,10.25,10.25,0,0,1,0,20.49Zm-5.3-3.55a1.39,1.39,0,0,0,1.95,0l4.32-4.32a1.38,1.38,0,0,0,.4-1V12a1.38,1.38,0,1,0-2.75,0v7.21l-3.92,3.92A1.39,1.39,0,0,0,13.66,25.08ZM3.21,7.22a6.65,6.65,0,1,1,6.65,6.65A6.65,6.65,0,0,1,3.21,7.22Zm2,.1,3,3a.92.92,0,0,0,.65.27.91.91,0,0,0,.65-.27l5-5a.94.94,0,0,0,0-1.3.93.93,0,0,0-1.3,0L8.85,8.34,6.53,6A.91.91,0,0,0,5.24,6,.92.92,0,0,0,5.24,7.32Z" transform="translate(0 -0.57)"/></svg>